HIERARCHY
ROOT Bip001_Pelvis
{
  OFFSET 34.4345 95.6767 -26.8758
  CHANNELS 6 Xposition Yposition Zposition Zrotation Xrotation Yrotation
  JOINT Bip001_Spine
  {
    OFFSET 1.4188e-005 10.2191 -0.0116013
    CHANNELS 3 Zrotation Xrotation Yrotation
    JOINT Bip001_L_Thigh
    {
      OFFSET 11.0458 -10.2192 0.0116197
      CHANNELS 3 Zrotation Xrotation Yrotation
      JOINT Bip001_L_Calf
      {
        OFFSET -0.707118 -44.0221 0.360014
        CHANNELS 3 Zrotation Xrotation Yrotation
        JOINT Bip001_L_Foot
        {
          OFFSET -0.651902 -40.5938 -3.56146
          CHANNELS 3 Zrotation Xrotation Yrotation
          JOINT Bip001_L_Toe0
          {
            OFFSET 0.0530839 -10.2181 13.1504
            CHANNELS 3 Zrotation Xrotation Yrotation
            End Site
            {
              OFFSET -1.02532e-005 0 7.55606
            }
          }
        }
      }
    }
    JOINT Bip001_R_Thigh
    {
      OFFSET -11.0458 -10.2191 0.0115893
      CHANNELS 3 Zrotation Xrotation Yrotation
      JOINT Bip001_R_Calf
      {
        OFFSET 0.706994 -44.0221 0.35984
        CHANNELS 3 Zrotation Xrotation Yrotation
        JOINT Bip001_R_Foot
        {
          OFFSET 0.651786 -40.5938 -3.5613
          CHANNELS 3 Zrotation Xrotation Yrotation
          JOINT Bip001_R_Toe0
          {
            OFFSET -0.0531479 -10.2181 13.1504
            CHANNELS 3 Zrotation Xrotation Yrotation
            End Site
            {
              OFFSET -1.02894e-005 0 7.55606
            }
          }
        }
      }
    }
    JOINT Bip001_Spine1
    {
      OFFSET 1.87041e-005 14.5736 1.08638
      CHANNELS 3 Zrotation Xrotation Yrotation
      JOINT Bip001_Spine2
      {
        OFFSET 2.24614e-005 14.5058 -1.69078
        CHANNELS 3 Zrotation Xrotation Yrotation
        JOINT Bip001_Neck
        {
          OFFSET 2.20278e-005 15.3945 -0.489414
          CHANNELS 3 Zrotation Xrotation Yrotation
          JOINT Bip001_L_Clavicle
          {
            OFFSET 6.06036 -0.000579998 0.00836775
            CHANNELS 3 Zrotation Xrotation Yrotation
            JOINT Bip001_L_UpperArm
            {
              OFFSET 11.5509 -0.0600302 0.00193952
              CHANNELS 3 Zrotation Xrotation Yrotation
              JOINT Bip001_L_Forearm
              {
                OFFSET 25.9523 0.0806089 -2.15551
                CHANNELS 3 Zrotation Xrotation Yrotation
                JOINT Bip001_L_Hand
                {
                  OFFSET 32.2475 0.153767 1.63968
                  CHANNELS 3 Zrotation Xrotation Yrotation
                  JOINT Bip001_L_Finger0
                  {
                    OFFSET 6.04639 -2.20976 5.90322
                    CHANNELS 3 Zrotation Xrotation Yrotation
                    End Site
                    {
                      OFFSET 4.22375 -1.43895 0.606485
                    }
                  }
                  JOINT Bip001_L_Finger1
                  {
                    OFFSET 11.0826 -0.704819 -0.198153
                    CHANNELS 3 Zrotation Xrotation Yrotation
                    End Site
                    {
                      OFFSET 6.20027 -0.397518 -0.0787166
                    }
                  }
                }
              }
            }
          }
          JOINT Bip001_R_Clavicle
          {
            OFFSET -6.06037 -0.000563197 0.00835105
            CHANNELS 3 Zrotation Xrotation Yrotation
            JOINT Bip001_R_UpperArm
            {
              OFFSET -11.5509 -0.0599978 0.00190698
              CHANNELS 3 Zrotation Xrotation Yrotation
              JOINT Bip001_R_Forearm
              {
                OFFSET -25.9523 0.0806822 -2.15589
                CHANNELS 3 Zrotation Xrotation Yrotation
                JOINT Bip001_R_Hand
                {
                  OFFSET -32.2475 0.153859 1.63989
                  CHANNELS 3 Zrotation Xrotation Yrotation
                  JOINT Bip001_R_Finger0
                  {
                    OFFSET -6.04641 -2.20976 5.90317
                    CHANNELS 3 Zrotation Xrotation Yrotation
                    End Site
                    {
                      OFFSET -4.22376 -1.43895 0.60647
                    }
                  }
                  JOINT Bip001_R_Finger1
                  {
                    OFFSET -11.0826 -0.704794 -0.198182
                    CHANNELS 3 Zrotation Xrotation Yrotation
                    End Site
                    {
                      OFFSET -6.20028 -0.397504 -0.0787333
                    }
                  }
                }
              }
            }
          }
          JOINT Bip001_Head
          {
            OFFSET 1.09673e-005 11.2744 2.05948
            CHANNELS 3 Zrotation Xrotation Yrotation
            End Site
            {
              OFFSET 2.89576e-005 20.8808 -2.77728e-005
            }
          }
        }
      }
    }
  }
}
MOTION
Frames:	9
Frame Time:	0.04
32.9834 95.721 -31.4391 0.0757535 -3.35112 -5.14655 0.36144 2.56374 -1.10522 5.35213 0.670538 14.8232 0.0298405 7.95363 0.0939205 1.50756 -3.5914 -0.00847018 1.45065 -5.21887 -0.486197 -5.33976 -3.71258 -0.0991384 -0.059368 12.2707 0.600105 -5.60038 -7.63707 -0.837763 2.62364 -9.26996 3.44604 0.774045 5.11998 -2.22974 0.773784 5.11999 -2.22988 4.46561 -5.30739 1.0701 -24.7891 7.9184 -5.14526 -44.2915 30.9195 -3.59533 12.8924 -6.65688 -32.7204 10.611 1.11757 -4.82499 3.18055e-015 -1.59028e-015 -3.18055e-015 -3.18055e-015 1.59028e-015 -3.18055e-015 23.2545 12.0026 15.7812 60.5187 25.5179 -12.4969 -35.8687 31.4311 22.7929 14.7934 -3.51416 7.96226 3.97569e-016 0 -0 3.97569e-016 -3.18056e-015 -4.96962e-017 -1.01804 -4.86978 2.34838 
32.7593 95.6784 -31.3711 0.117269 -3.59098 -6.29493 0.47818 2.623 -1.28193 5.12781 1.33727 14.6262 -0.0793393 7.54262 1.47573 1.59545 -3.33366 -0.0123329 1.55323 -5.42482 -0.527944 -5.40884 -4.07146 0.705937 -0.0581789 12.9817 0.770588 -5.67543 -8.03492 -0.579193 2.59377 -9.18856 3.44524 1.01665 5.23454 -2.58981 1.01665 5.23454 -2.58981 4.15552 -5.20678 1.73019 -24.5903 8.03573 -5.47684 -44.6209 31.4697 -3.32718 13.0917 -6.34544 -33.7646 11.2739 1.07331 -5.27779 -2.64834e-031 4.77083e-015 3.18055e-015 -3.18055e-015 3.18056e-015 3.18055e-015 23.3627 11.5181 15.0192 63.036 30.2052 -12.7538 -25.6914 29.5299 12.6757 19.5237 -4.98111 10.0811 1.59028e-015 3.18055e-015 1.59028e-015 1.59028e-015 0 1.59028e-015 -0.646881 -4.70128 2.8609 
32.5382 95.635 -31.3838 0.170442 -3.66488 -7.19602 0.591008 2.69106 -1.42528 4.83388 1.51437 17.1058 0.366654 7.44771 -0.260012 2.4494 -2.66384 -0.0556258 1.84668 -6.11595 -0.719655 -5.51305 -4.66401 1.15127 0.0270709 13.8085 0.93775 -5.75175 -8.42555 -0.253871 2.56351 -9.11668 3.43998 1.25058 5.36641 -2.8893 1.25049 5.36643 -2.88654 4.11825 -5.58962 2.33607 -24.634 8.73369 -6.17246 -44.5043 33.1109 -3.27944 13.8226 -5.24824 -34.2429 11.5573 0.916802 -5.92663 6.36111e-015 -1.59028e-015 -1.59028e-015 9.54166e-015 0 -3.18055e-015 23.3011 11.5074 14.066 64.8576 30.34 -13.9791 -19.8479 25.3208 8.77655 23.5549 -4.74972 10.8966 -4.77083e-015 6.36111e-015 -1.59028e-015 -3.18055e-015 6.36111e-015 -3.18055e-015 -0.655949 -4.39325 3.43676 
32.2589 95.5883 -31.4022 0.088951 -3.73333 -8.20839 0.671296 2.77323 -1.44529 4.94447 1.59998 17.9449 0.454314 7.78415 -0.164549 1.87656 -3.1227 -0.0311787 1.63653 -5.89968 -0.484431 -5.23691 -5.23551 2.02933 -0.087927 14.5741 1.14811 -5.97201 -8.63818 -0.337263 2.53699 -9.04596 3.4177 1.41545 5.52836 -2.92788 1.41574 5.52837 -2.92809 4.61814 -5.78442 2.68824 -25.1145 9.20849 -6.90822 -44.1981 35.4934 -3.32351 14.8072 -3.95835 -34.3647 10.7504 0.577707 -6.53247 -3.18055e-015 3.18055e-015 1.59028e-015 3.18055e-015 3.18056e-015 -0 22.6858 11.3628 13.1121 67.6294 30.4662 -17.1845 -19.2726 19.9358 9.09236 26.2177 -2.62457 9.50568 3.18055e-015 0 -0 3.18055e-015 -6.36111e-015 -0 -1.22286 -4.46595 3.99219 
31.9801 95.5237 -31.4157 -0.0448681 -3.84824 -9.21702 0.67149 2.84919 -1.45916 5.16538 1.76192 17.9572 0.37191 8.05343 0.580253 1.91705 -3.13292 -0.0335581 1.55666 -6.12858 -0.37262 -4.8543 -5.75567 3.07865 -0.119321 15.3794 1.16787 -6.1678 -8.85032 -0.409532 2.52658 -9.03514 3.44099 1.42281 5.68005 -2.95823 1.42222 5.68006 -2.95766 5.56794 -5.84028 2.99884 -25.5312 9.47357 -7.61821 -44.6013 37.4621 -3.0292 16.1507 -2.3701 -34.2573 9.43519 0.533628 -7.10717 -3.18055e-015 -7.95139e-016 -7.95139e-016 -6.62086e-032 -2.38542e-015 -1.59028e-015 21.9273 11.0026 11.69 70.1646 31.6227 -20.6794 -22.0192 18.8711 11.0043 28.5103 -1.83309 10.4464 -6.36111e-015 9.54166e-015 -3.18055e-015 -3.18055e-015 3.18056e-015 -0 -2.02841 -4.36179 4.67822 
31.684 95.4684 -31.4281 -0.367358 -3.85947 -10.1996 0.668186 2.90967 -1.56385 5.61485 1.82053 18.7547 0.437689 8.50966 0.605658 1.63112 -3.4408 -0.0219236 1.37514 -6.22814 -0.206911 -4.35125 -6.01848 3.93538 -0.0216804 15.5927 1.13343 -6.19151 -8.97547 -0.292693 2.48635 -8.96796 3.48348 1.41518 5.79987 -3.16685 1.41803 5.79987 -3.16727 6.31297 -5.63054 3.64181 -25.6003 9.53393 -8.3528 -45.6782 37.8995 -2.27247 17.352 0.402198 -33.9994 9.49087 0.0693843 -7.69092 -3.18055e-015 -1.19271e-015 -2.38542e-015 -3.18055e-015 -3.57813e-015 -2.78299e-015 21.3348 10.0862 9.53471 71.1995 33.1869 -22.3744 -25.2267 22.304 12.6298 28.6778 -2.35801 14.8893 4.77083e-015 0 3.18055e-015 3.18055e-015 3.18056e-015 4.77083e-015 -2.4732 -4.47741 5.58307 
31.4256 95.4371 -31.4208 -0.778001 -3.90339 -10.9868 0.714822 2.96992 -1.73641 6.17177 1.91302 19.3574 0.309268 9.03774 0.792045 1.53083 -3.76579 -0.0177575 1.30745 -6.29894 -0.110823 -3.90351 -5.92402 4.38851 0.0394918 15.3122 1.17908 -6.11258 -9.02527 0.0583882 2.46421 -8.91116 3.47292 1.52262 5.91653 -3.5169 1.52263 5.91654 -3.51691 6.82843 -5.10099 4.64621 -25.6298 9.41578 -9.32146 -47.3615 38.7253 -1.05033 17.1973 -0.0597859 -34.092 8.70771 0.312366 -7.21661 -9.93129e-032 -2.38542e-015 -2.38542e-015 -2.3173e-031 -5.56597e-015 -2.38542e-015 20.9607 9.19107 8.51323 70.8254 31.7256 -23.1262 -28.2312 24.2806 15.0923 25.1812 -4.27398 16.5256 1.59028e-015 -3.18055e-015 1.59028e-015 -1.59028e-015 0 1.59028e-015 -3.27609 -4.94383 6.86811 
31.2317 95.3553 -31.5317 -1.04854 -3.99285 -11.9109 0.77303 3.04281 -1.86036 6.53268 1.7987 19.6079 0.181847 9.85468 1.36123 1.83641 -3.95813 -0.0137754 1.35022 -6.61745 -0.0469117 -3.5618 -6.28194 5.33748 0.137853 15.7603 1.25972 -6.18907 -9.1493 0.0349926 2.4274 -8.86081 3.52522 1.64819 6.05856 -3.76962 1.64819 6.05857 -3.76963 6.84454 -4.66049 5.93965 -25.6538 9.60197 -10.6429 -48.7097 39.4895 -0.0382229 16.803 -0.516283 -33.5056 8.66109 0.316286 -7.08915 6.36111e-015 1.19271e-015 7.95139e-016 6.36111e-015 1.59028e-015 5.96354e-016 21.0549 8.02322 6.568 68.8014 28.7398 -22.3402 -30.3541 22.0314 17.9154 19.9462 -5.3715 15.9045 2.38542e-015 -9.54166e-015 3.18055e-015 7.95139e-016 -9.54167e-015 3.97569e-015 -3.7609 -5.2318 8.25006 
31.1358 95.1987 -31.7223 -1.23565 -3.93012 -12.8782 0.860529 3.08486 -1.94409 6.86475 1.05662 19.4295 0.0338304 11.5726 2.32225 2.42854 -4.36144 -0.0115299 1.36808 -6.99886 0.0561339 -3.36012 -7.12659 6.0704 0.302981 16.7955 1.38708 -6.31806 -9.52479 0.0630435 2.46437 -8.89732 3.46711 1.82984 6.13831 -3.93947 1.82982 6.13833 -3.94147 6.34139 -4.03986 7.52428 -25.2962 9.70853 -12.2185 -49.8193 40.3984 0.593844 16.7624 -0.508664 -32.6272 7.8341 0.739044 -6.4559 -3.18055e-015 2.5842e-015 -5.96354e-016 -6.36111e-015 9.93924e-016 5.96354e-016 21.0938 6.62806 4.79805 66.4716 21.9018 -20.8856 -33.2252 17.7376 22.4371 13.9948 -4.29873 14.0573 -5.96354e-016 3.18055e-015 7.95139e-016 -1.98785e-016 3.18056e-015 5.96354e-016 -4.28478 -5.9971 9.78838 
